<!-- Generator: Adobe Illustrator 19.0.0, SVG Export Plug-In  -->
<svg version="1.1"
	 xmlns="http://www.w3.org/2000/svg" xmlns:xlink="http://www.w3.org/1999/xlink" xmlns:a="http://ns.adobe.com/AdobeSVGViewerExtensions/3.0/"
	 x="0px" y="0px" width="309.239px" height="111.97px" viewBox="0 0 309.239 111.97"
	 style="enable-background:new 0 0 309.239 111.97;" xml:space="preserve">
<style type="text/css">
	.st0{fill:#FFFFFF;}
	.st1{font-family:'Lato-Black';}
	.st2{font-size:33px;}
	.st3{letter-spacing:-3;}
	.st4{font-family:'Lato-Italic';}
	.st5{font-size:29px;}
	.st6{letter-spacing:-2;}
</style>
<defs>
</defs>
<g id="XMLID_2_">
	<path id="XMLID_4_" class="st0" d="M18.134,22.299c0.132,0,0.264,0.025,0.396,0.074c0.132,0.05,0.259,0.135,0.38,0.256l2.211,2.327
		c-0.968,1.265-2.181,2.219-3.639,2.863c-1.457,0.644-3.182,0.965-5.173,0.965c-1.825,0-3.462-0.311-4.908-0.933
		c-1.446-0.621-2.673-1.479-3.68-2.574c-1.007-1.094-1.779-2.393-2.318-3.894s-0.809-3.132-0.809-4.892
		c0-1.793,0.308-3.44,0.924-4.942s1.478-2.797,2.583-3.886s2.428-1.936,3.968-2.541s3.239-0.908,5.099-0.908
		c0.901,0,1.752,0.08,2.549,0.239c0.798,0.16,1.543,0.38,2.236,0.66c0.692,0.281,1.331,0.616,1.914,1.006
		c0.583,0.391,1.1,0.823,1.551,1.295l-1.881,2.524c-0.121,0.154-0.264,0.294-0.429,0.421s-0.396,0.19-0.693,0.19
		c-0.198,0-0.385-0.044-0.562-0.132c-0.176-0.088-0.362-0.195-0.561-0.322c-0.198-0.126-0.415-0.264-0.651-0.413
		c-0.237-0.148-0.518-0.286-0.842-0.412s-0.704-0.234-1.139-0.322s-0.943-0.132-1.526-0.132c-1.012,0-1.936,0.179-2.771,0.537
		s-1.554,0.869-2.153,1.534c-0.6,0.666-1.067,1.472-1.402,2.417c-0.336,0.946-0.504,2.007-0.504,3.185
		c0,1.232,0.168,2.326,0.504,3.283c0.335,0.957,0.792,1.763,1.369,2.417s1.251,1.152,2.021,1.493
		c0.77,0.341,1.595,0.511,2.475,0.511c0.506,0,0.968-0.024,1.386-0.074c0.418-0.049,0.806-0.134,1.164-0.255
		c0.356-0.121,0.698-0.278,1.022-0.47s0.652-0.432,0.981-0.718c0.133-0.11,0.275-0.201,0.43-0.272
		C17.809,22.335,17.969,22.299,18.134,22.299z"/>
	<path id="XMLID_6_" class="st0" d="M28.577,19.626v8.894h-5.576V4.479h7.82c1.738,0,3.221,0.179,4.447,0.536
		c1.227,0.358,2.228,0.855,3.003,1.493c0.775,0.638,1.339,1.392,1.691,2.261c0.352,0.869,0.527,1.815,0.527,2.838
		c0,0.781-0.104,1.518-0.313,2.211c-0.209,0.693-0.52,1.334-0.932,1.922c-0.413,0.589-0.919,1.114-1.519,1.576
		s-1.29,0.842-2.07,1.139c0.374,0.187,0.723,0.418,1.048,0.693c0.324,0.275,0.607,0.61,0.85,1.006l5.115,8.366h-5.05
		c-0.935,0-1.605-0.352-2.013-1.056l-3.993-6.979c-0.176-0.308-0.382-0.528-0.618-0.66c-0.237-0.132-0.569-0.198-0.999-0.198H28.577
		z M28.577,15.782h2.244c0.759,0,1.405-0.096,1.939-0.289c0.533-0.192,0.97-0.459,1.312-0.8c0.341-0.341,0.588-0.74,0.742-1.196
		c0.154-0.456,0.231-0.949,0.231-1.477c0-1.056-0.345-1.881-1.031-2.475c-0.688-0.594-1.752-0.891-3.193-0.891h-2.244V15.782z"/>
	<path id="XMLID_9_" class="st0" d="M59.763,4.479v4.29h-9.867v5.61h7.558v4.125h-7.558v5.726h9.867v4.29H44.286V4.479H59.763z"/>
	<path id="XMLID_11_" class="st0" d="M84.644,28.52h-4.322c-0.484,0-0.883-0.113-1.196-0.338c-0.313-0.225-0.531-0.514-0.652-0.866
		l-1.419-4.191h-9.141l-1.419,4.191c-0.11,0.308-0.324,0.586-0.644,0.833s-0.71,0.371-1.172,0.371h-4.355l9.306-24.041h5.709
		L84.644,28.52z M69.2,19.33h6.566l-2.211-6.583c-0.143-0.418-0.311-0.91-0.503-1.477c-0.192-0.566-0.382-1.18-0.569-1.839
		c-0.176,0.671-0.357,1.292-0.544,1.864c-0.188,0.572-0.363,1.067-0.528,1.485L69.2,19.33z"/>
	<path id="XMLID_14_" class="st0" d="M100.748,4.479v4.422h-6.765V28.52h-5.577V8.901h-6.765V4.479H100.748z"/>
	<path id="XMLID_16_" class="st0" d="M108.504,28.52h-5.61V4.479h5.61V28.52z"/>
	<path id="XMLID_18_" class="st0" d="M110.318,4.479h4.488c0.483,0,0.88,0.11,1.188,0.33c0.308,0.22,0.528,0.511,0.66,0.875
		l4.653,12.87c0.209,0.561,0.421,1.171,0.635,1.832c0.215,0.66,0.415,1.353,0.603,2.079c0.154-0.726,0.332-1.419,0.536-2.079
		c0.203-0.66,0.404-1.271,0.603-1.832l4.62-12.87c0.109-0.308,0.324-0.586,0.644-0.833c0.318-0.248,0.709-0.371,1.171-0.371h4.521
		l-9.637,24.041h-5.049L110.318,4.479z"/>
	<path id="XMLID_20_" class="st0" d="M151.437,4.479v4.29h-9.867v5.61h7.558v4.125h-7.558v5.726h9.867v4.29H135.96V4.479H151.437z"
		/>
	<path id="XMLID_22_" class="st0" d="M187.175,16.492c0,1.738-0.3,3.341-0.899,4.81s-1.443,2.739-2.532,3.812
		c-1.089,1.072-2.401,1.909-3.936,2.508c-1.534,0.6-3.237,0.899-5.106,0.899h-9.339V4.479h9.339c1.869,0,3.572,0.303,5.106,0.908
		s2.847,1.441,3.936,2.508s1.933,2.335,2.532,3.803C186.875,13.167,187.175,14.765,187.175,16.492z M181.466,16.492
		c0-1.188-0.154-2.261-0.462-3.218c-0.309-0.957-0.751-1.768-1.328-2.434c-0.578-0.666-1.284-1.177-2.12-1.535
		c-0.836-0.357-1.788-0.536-2.854-0.536h-3.729v15.46h3.729c1.066,0,2.019-0.179,2.854-0.536s1.542-0.869,2.12-1.535
		c0.577-0.666,1.02-1.477,1.328-2.434C181.312,18.769,181.466,17.69,181.466,16.492z"/>
	<path id="XMLID_25_" class="st0" d="M204.664,4.479v4.29h-9.867v5.61h7.558v4.125h-7.558v5.726h9.867v4.29h-15.477V4.479H204.664z"
		/>
	<path id="XMLID_27_" class="st0" d="M220.569,9.363c-0.165,0.264-0.338,0.462-0.52,0.594s-0.415,0.198-0.701,0.198
		c-0.253,0-0.525-0.08-0.817-0.239c-0.291-0.16-0.621-0.338-0.989-0.537c-0.369-0.198-0.79-0.376-1.263-0.536
		c-0.473-0.159-1.012-0.239-1.617-0.239c-1.045,0-1.823,0.223-2.334,0.668c-0.512,0.445-0.768,1.047-0.768,1.807
		c0,0.484,0.153,0.886,0.462,1.205c0.308,0.319,0.712,0.594,1.213,0.825c0.5,0.231,1.072,0.443,1.716,0.635
		c0.644,0.193,1.301,0.407,1.972,0.644c0.671,0.237,1.328,0.515,1.972,0.833s1.216,0.726,1.716,1.221
		c0.501,0.495,0.905,1.097,1.213,1.807c0.308,0.71,0.462,1.565,0.462,2.566c0,1.111-0.192,2.151-0.577,3.119
		c-0.386,0.968-0.943,1.813-1.675,2.533c-0.731,0.721-1.634,1.287-2.706,1.699c-1.072,0.413-2.291,0.619-3.654,0.619
		c-0.749,0-1.51-0.077-2.286-0.231c-0.775-0.154-1.525-0.372-2.252-0.652c-0.726-0.281-1.408-0.613-2.046-0.999
		c-0.638-0.385-1.193-0.814-1.666-1.287l1.649-2.607c0.121-0.198,0.291-0.357,0.512-0.478c0.22-0.121,0.456-0.182,0.709-0.182
		c0.33,0,0.663,0.104,0.999,0.313c0.335,0.209,0.715,0.44,1.138,0.693c0.424,0.253,0.91,0.484,1.461,0.693
		c0.55,0.209,1.198,0.313,1.947,0.313c1.012,0,1.798-0.223,2.359-0.668c0.561-0.446,0.841-1.152,0.841-2.12
		c0-0.561-0.154-1.018-0.462-1.37s-0.712-0.644-1.213-0.875c-0.5-0.231-1.069-0.435-1.707-0.61
		c-0.639-0.176-1.293-0.372-1.964-0.586s-1.325-0.479-1.964-0.792c-0.638-0.313-1.207-0.726-1.707-1.237
		c-0.501-0.512-0.905-1.149-1.213-1.914c-0.309-0.765-0.462-1.708-0.462-2.83c0-0.902,0.182-1.782,0.544-2.64
		c0.363-0.858,0.896-1.623,1.601-2.293s1.567-1.208,2.591-1.609c1.022-0.401,2.194-0.603,3.515-0.603
		c0.736,0,1.454,0.058,2.153,0.173c0.698,0.116,1.361,0.286,1.988,0.512s1.212,0.495,1.757,0.809s1.031,0.668,1.46,1.064
		L220.569,9.363z"/>
	<path id="XMLID_29_" class="st0" d="M230.503,28.52h-5.61V4.479h5.61V28.52z"/>
	<path id="XMLID_31_" class="st0" d="M245.616,24.494c0.77,0,1.452-0.066,2.046-0.198c0.595-0.132,1.155-0.308,1.684-0.528v-3.646
		h-2.376c-0.353,0-0.627-0.093-0.825-0.281c-0.198-0.187-0.297-0.423-0.297-0.709v-3.069h8.547V26.21
		c-0.616,0.451-1.257,0.839-1.923,1.163c-0.665,0.325-1.375,0.592-2.128,0.8c-0.754,0.209-1.557,0.363-2.409,0.462
		c-0.853,0.099-1.769,0.148-2.747,0.148c-1.76,0-3.389-0.311-4.884-0.933c-1.496-0.621-2.792-1.479-3.886-2.574
		c-1.095-1.094-1.953-2.393-2.574-3.894c-0.622-1.501-0.933-3.132-0.933-4.892c0-1.793,0.297-3.44,0.892-4.942
		c0.594-1.501,1.443-2.797,2.549-3.886s2.442-1.936,4.01-2.541s3.319-0.908,5.255-0.908c1.001,0,1.941,0.083,2.821,0.248
		s1.691,0.391,2.435,0.677c0.742,0.286,1.421,0.627,2.037,1.023s1.166,0.825,1.65,1.287l-1.617,2.458
		c-0.154,0.231-0.338,0.412-0.553,0.544c-0.215,0.132-0.448,0.198-0.701,0.198c-0.33,0-0.671-0.11-1.023-0.33
		c-0.439-0.264-0.855-0.492-1.245-0.685c-0.391-0.192-0.79-0.349-1.196-0.47c-0.407-0.121-0.836-0.209-1.287-0.264
		c-0.451-0.055-0.957-0.083-1.519-0.083c-1.045,0-1.985,0.185-2.821,0.553c-0.836,0.369-1.548,0.889-2.137,1.56
		s-1.042,1.477-1.361,2.417s-0.479,1.988-0.479,3.144c0,1.276,0.176,2.409,0.528,3.399c0.352,0.99,0.839,1.826,1.46,2.508
		c0.621,0.682,1.358,1.202,2.211,1.56S244.604,24.494,245.616,24.494z"/>
	<path id="XMLID_33_" class="st0" d="M260.681,4.513c0.165,0.022,0.313,0.063,0.445,0.124c0.133,0.061,0.259,0.146,0.38,0.256
		s0.258,0.258,0.412,0.445l11.418,14.438c-0.044-0.462-0.077-0.91-0.099-1.345c-0.022-0.434-0.033-0.844-0.033-1.229V4.479h4.917
		V28.52h-2.903c-0.43,0-0.792-0.066-1.09-0.198c-0.297-0.132-0.583-0.374-0.857-0.726l-11.336-14.322
		c0.033,0.418,0.061,0.828,0.083,1.229c0.021,0.401,0.033,0.778,0.033,1.13V28.52h-4.917V4.479h2.937
		C260.313,4.479,260.516,4.491,260.681,4.513z"/>
	<path id="XMLID_35_" class="st0" d="M296.105,4.215c1.066,0,2.007,0.157,2.821,0.47c0.814,0.314,1.502,0.726,2.063,1.238
		c0.562,0.511,1.001,1.103,1.32,1.773c0.318,0.671,0.517,1.359,0.594,2.063l-3.3,0.66c-0.056,0.011-0.102,0.02-0.141,0.025
		c-0.038,0.005-0.08,0.008-0.123,0.008c-0.463,0-0.804-0.242-1.023-0.726c-0.253-0.572-0.547-1.006-0.883-1.304
		c-0.336-0.297-0.778-0.445-1.328-0.445c-0.385,0-0.721,0.072-1.007,0.214c-0.286,0.143-0.525,0.33-0.718,0.561
		s-0.338,0.501-0.437,0.809c-0.1,0.308-0.148,0.627-0.148,0.957c0,0.286,0.024,0.561,0.074,0.825c0.049,0.264,0.132,0.531,0.247,0.8
		c0.115,0.27,0.274,0.547,0.479,0.833c0.203,0.286,0.465,0.594,0.784,0.924l5.939,6.27c0.297-0.66,0.533-1.347,0.71-2.063
		c0.176-0.715,0.302-1.458,0.379-2.228c0.022-0.308,0.124-0.55,0.306-0.726c0.182-0.176,0.421-0.264,0.718-0.264h3.233
		c0,1.606-0.214,3.105-0.644,4.496c-0.429,1.392-1.039,2.665-1.831,3.82l5.049,5.313h-5.049c-0.253,0-0.479-0.014-0.677-0.041
		s-0.382-0.075-0.553-0.141s-0.333-0.159-0.486-0.28c-0.154-0.121-0.319-0.275-0.495-0.462l-1.04-1.089
		c-1.045,0.726-2.186,1.287-3.423,1.683c-1.238,0.396-2.556,0.594-3.952,0.594c-0.957,0-1.895-0.165-2.813-0.495
		c-0.918-0.33-1.735-0.8-2.45-1.411c-0.715-0.611-1.293-1.35-1.732-2.219c-0.44-0.869-0.66-1.842-0.66-2.921
		c0-0.726,0.113-1.413,0.339-2.063c0.225-0.648,0.541-1.251,0.948-1.807c0.407-0.555,0.894-1.062,1.46-1.518
		c0.566-0.456,1.186-0.855,1.856-1.196c-0.517-0.803-0.891-1.589-1.122-2.359c-0.23-0.77-0.347-1.518-0.347-2.244
		c0-0.858,0.157-1.669,0.471-2.434c0.313-0.764,0.77-1.436,1.369-2.013c0.6-0.578,1.337-1.037,2.211-1.378
		C293.969,4.386,294.973,4.215,296.105,4.215z M291.122,21.326c0,0.528,0.08,1.006,0.239,1.436c0.159,0.429,0.388,0.797,0.686,1.105
		c0.297,0.308,0.651,0.547,1.063,0.718c0.413,0.17,0.872,0.255,1.378,0.255c0.737,0,1.422-0.096,2.055-0.289
		c0.632-0.192,1.224-0.464,1.773-0.817l-5.527-5.857c-0.605,0.495-1.034,1.034-1.287,1.617S291.122,20.688,291.122,21.326z"/>
	<path id="XMLID_38_" class="st0" d="M16.32,46.561c-0.106,0.136-0.208,0.239-0.305,0.312c-0.097,0.072-0.212,0.108-0.348,0.108
		c-0.164,0-0.339-0.084-0.521-0.253c-0.185-0.169-0.419-0.353-0.704-0.551c-0.285-0.198-0.63-0.382-1.036-0.551
		s-0.914-0.254-1.522-0.254c-0.619,0-1.17,0.097-1.653,0.29s-0.892,0.457-1.226,0.79c-0.333,0.333-0.587,0.723-0.761,1.167
		c-0.174,0.445-0.261,0.923-0.261,1.436c0,0.502,0.115,0.926,0.348,1.269c0.232,0.343,0.536,0.638,0.913,0.885
		s0.81,0.464,1.298,0.652s0.983,0.382,1.486,0.58s0.998,0.418,1.486,0.66s0.921,0.542,1.298,0.899
		c0.377,0.358,0.682,0.788,0.913,1.291c0.232,0.503,0.349,1.112,0.349,1.827c0,0.986-0.169,1.917-0.508,2.791
		c-0.338,0.875-0.824,1.641-1.457,2.298c-0.634,0.658-1.399,1.18-2.298,1.566c-0.899,0.387-1.91,0.58-3.031,0.58
		c-1.237,0-2.342-0.244-3.313-0.732c-0.972-0.488-1.771-1.147-2.4-1.979l0.957-1.291c0.077-0.106,0.174-0.193,0.29-0.261
		c0.116-0.068,0.241-0.102,0.377-0.102c0.184,0,0.382,0.108,0.595,0.326c0.213,0.217,0.483,0.459,0.812,0.725
		c0.329,0.266,0.735,0.507,1.219,0.725c0.482,0.218,1.087,0.327,1.813,0.327c0.667,0,1.269-0.106,1.805-0.319
		c0.537-0.212,0.991-0.507,1.363-0.884s0.66-0.829,0.862-1.356c0.203-0.527,0.305-1.109,0.305-1.747
		c0-0.532-0.116-0.974-0.348-1.327c-0.232-0.353-0.537-0.65-0.914-0.892c-0.377-0.241-0.805-0.452-1.283-0.63
		c-0.479-0.179-0.971-0.36-1.479-0.544s-1.001-0.392-1.479-0.624s-0.906-0.527-1.283-0.884c-0.377-0.358-0.682-0.798-0.913-1.32
		c-0.232-0.522-0.348-1.165-0.348-1.928c0-0.851,0.154-1.667,0.464-2.451c0.309-0.783,0.754-1.474,1.334-2.073
		c0.58-0.6,1.285-1.078,2.117-1.436c0.831-0.358,1.769-0.537,2.813-0.537c1.063,0,2.021,0.203,2.871,0.609
		c0.851,0.406,1.552,0.962,2.103,1.667L16.32,46.561z"/>
	<path id="XMLID_40_" class="st0" d="M35.359,52.259c0,1.179-0.126,2.296-0.377,3.349c-0.252,1.054-0.606,2.028-1.066,2.922
		c-0.459,0.895-1.015,1.699-1.667,2.415s-1.383,1.324-2.189,1.827c-0.808,0.503-1.682,0.89-2.625,1.16
		c-0.942,0.271-1.931,0.406-2.965,0.406c-1.276,0-2.424-0.227-3.443-0.681c-1.021-0.455-1.891-1.085-2.61-1.893
		c-0.721-0.807-1.271-1.766-1.653-2.878s-0.572-2.33-0.572-3.654c0-1.769,0.275-3.395,0.826-4.879s1.313-2.762,2.284-3.835
		c0.972-1.073,2.121-1.909,3.451-2.508c1.328-0.6,2.771-0.899,4.328-0.899c1.275,0,2.424,0.23,3.443,0.689
		c1.02,0.459,1.89,1.095,2.61,1.907c0.72,0.812,1.271,1.776,1.652,2.893C35.168,49.714,35.359,50.935,35.359,52.259z M32.575,52.317
		c0-1.053-0.136-2.008-0.406-2.864c-0.271-0.855-0.654-1.583-1.152-2.182c-0.498-0.599-1.107-1.063-1.827-1.392
		c-0.72-0.328-1.529-0.493-2.429-0.493c-1.141,0-2.189,0.229-3.146,0.688c-0.957,0.459-1.778,1.114-2.465,1.965
		s-1.224,1.878-1.609,3.082c-0.387,1.203-0.58,2.549-0.58,4.038c0,1.054,0.135,2.006,0.406,2.856
		c0.271,0.851,0.654,1.576,1.152,2.175c0.498,0.6,1.104,1.061,1.819,1.385c0.716,0.324,1.522,0.486,2.422,0.486
		c1.16,0,2.219-0.227,3.176-0.682c0.957-0.454,1.778-1.104,2.465-1.95c0.687-0.846,1.22-1.87,1.603-3.074
		C32.384,55.152,32.575,53.806,32.575,52.317z"/>
	<path id="XMLID_43_" class="st0" d="M49.177,45.56h-9.091l-0.914,7.395h7.787l-0.305,2.204h-7.743L37.81,64.12h-2.741l2.566-20.778
		h11.817L49.177,45.56z"/>
	<path id="XMLID_45_" class="st0" d="M63.503,43.342l-0.29,2.276h-6.134L54.817,64.12H52.12l2.263-18.502H48.22l0.275-2.276H63.503z
		"/>
	<path id="XMLID_47_" class="st0" d="M61.748,43.342h2.117c0.242,0,0.436,0.061,0.58,0.181c0.146,0.121,0.232,0.278,0.261,0.471
		l2.233,14.703c0.02,0.135,0.036,0.3,0.051,0.493c0.015,0.194,0.031,0.382,0.051,0.566c0.01,0.212,0.02,0.43,0.029,0.652
		c0.096-0.31,0.195-0.609,0.297-0.899s0.205-0.561,0.312-0.812l6.221-14.703c0.077-0.164,0.203-0.314,0.377-0.45
		c0.174-0.135,0.377-0.203,0.609-0.203h0.623c0.241,0,0.436,0.061,0.58,0.181c0.146,0.121,0.237,0.278,0.275,0.471l2.596,14.703
		c0.048,0.251,0.087,0.517,0.116,0.797c0.028,0.28,0.053,0.575,0.072,0.884c0.097-0.309,0.186-0.604,0.269-0.884
		c0.082-0.28,0.171-0.546,0.268-0.797l5.844-14.703c0.067-0.164,0.196-0.314,0.385-0.45c0.188-0.135,0.398-0.203,0.63-0.203h2.117
		L80.149,64.12h-2.451l-2.813-15.994c-0.029-0.154-0.056-0.324-0.08-0.507s-0.046-0.372-0.065-0.565
		c-0.067,0.193-0.133,0.382-0.195,0.565c-0.063,0.184-0.129,0.353-0.196,0.507L67.606,64.12h-2.436L61.748,43.342z"/>
	<path id="XMLID_49_" class="st0" d="M100.913,64.12h-2.088c-0.242,0-0.431-0.06-0.566-0.181c-0.135-0.121-0.227-0.278-0.275-0.471
		l-1.131-5.075h-8.468l-2.378,5.075c-0.087,0.174-0.22,0.326-0.398,0.457c-0.18,0.13-0.38,0.196-0.603,0.196H82.89l10.193-20.778
		h2.74L100.913,64.12z M89.298,56.42h7.12l-1.914-8.598c-0.059-0.251-0.121-0.537-0.188-0.855c-0.068-0.319-0.126-0.662-0.174-1.03
		c-0.136,0.368-0.273,0.713-0.414,1.037c-0.14,0.324-0.272,0.612-0.398,0.863L89.298,56.42z"/>
	<path id="XMLID_52_" class="st0" d="M104.842,55.406l-1.073,8.714h-2.696l2.537-20.778h5.467c1.102,0,2.057,0.116,2.863,0.348
		c0.808,0.232,1.475,0.563,2.001,0.994c0.527,0.43,0.919,0.952,1.175,1.566s0.384,1.297,0.384,2.052
		c0,0.841-0.125,1.624-0.377,2.349c-0.251,0.725-0.613,1.375-1.087,1.951s-1.044,1.063-1.711,1.464
		c-0.667,0.401-1.421,0.698-2.263,0.892c0.31,0.213,0.566,0.503,0.769,0.87l4.48,8.294h-2.406c-0.474,0-0.813-0.193-1.016-0.58
		l-3.915-7.482c-0.125-0.242-0.271-0.411-0.435-0.507c-0.165-0.097-0.426-0.145-0.783-0.145H104.842z M106.074,45.473l-0.985,7.96
		h2.653c0.821,0,1.546-0.116,2.175-0.348c0.628-0.232,1.157-0.558,1.588-0.979c0.43-0.42,0.754-0.918,0.972-1.494
		c0.217-0.575,0.326-1.206,0.326-1.892c0-1.054-0.331-1.858-0.993-2.415c-0.663-0.556-1.656-0.833-2.98-0.833H106.074z"/>
	<path id="XMLID_55_" class="st0" d="M129.84,45.56h-9.091l-0.87,7.003h7.366l-0.276,2.132h-7.351l-0.885,7.221h9.12l-0.275,2.204
		h-11.847l2.566-20.778h11.817L129.84,45.56z"/>
	<path id="XMLID_57_" class="st0" d="M153.475,52.273c0,1.769-0.273,3.381-0.819,4.836c-0.546,1.455-1.3,2.702-2.262,3.741
		s-2.107,1.844-3.437,2.414s-2.776,0.855-4.343,0.855h-7.178l2.566-20.778h7.163c1.276,0,2.429,0.217,3.459,0.652
		c1.029,0.435,1.901,1.046,2.617,1.834c0.715,0.788,1.266,1.731,1.652,2.828C153.281,49.753,153.475,50.959,153.475,52.273z
		 M150.69,52.332c0-1.044-0.133-1.986-0.398-2.828c-0.266-0.841-0.647-1.554-1.146-2.139c-0.498-0.584-1.104-1.034-1.819-1.348
		c-0.716-0.314-1.522-0.472-2.422-0.472h-4.437l-2.03,16.385h4.437c1.16,0,2.219-0.22,3.176-0.66s1.778-1.073,2.465-1.899
		c0.687-0.827,1.221-1.832,1.603-3.016S150.69,53.83,150.69,52.332z"/>
	<path id="XMLID_60_" class="st0" d="M167.307,45.56h-9.091l-0.87,7.003h7.366l-0.276,2.132h-7.351l-0.885,7.221h9.12l-0.275,2.204
		h-11.847l2.566-20.778h11.817L167.307,45.56z"/>
	<path id="XMLID_62_" class="st0" d="M166.741,43.342h2.161c0.241,0,0.43,0.063,0.565,0.188c0.135,0.125,0.227,0.28,0.275,0.464
		l3.465,14.848c0.077,0.309,0.152,0.65,0.226,1.022c0.072,0.373,0.132,0.761,0.181,1.167c0.136-0.406,0.278-0.792,0.428-1.16
		c0.149-0.367,0.302-0.71,0.457-1.029l7.091-14.848c0.077-0.154,0.205-0.302,0.384-0.442s0.384-0.21,0.616-0.21h2.175L174.427,64.12
		h-2.451L166.741,43.342z"/>
	<path id="XMLID_64_" class="st0" d="M196.394,45.56h-9.091l-0.87,7.003h7.366l-0.276,2.132h-7.351l-0.885,7.221h9.12l-0.275,2.204
		h-11.847l2.566-20.778h11.817L196.394,45.56z"/>
	<path id="XMLID_66_" class="st0" d="M198.424,61.829h8.222l-0.275,2.291h-10.934l2.566-20.778h2.712L198.424,61.829z"/>
	<path id="XMLID_68_" class="st0" d="M224.741,52.259c0,1.179-0.126,2.296-0.377,3.349c-0.252,1.054-0.606,2.028-1.066,2.922
		c-0.459,0.895-1.015,1.699-1.667,2.415s-1.383,1.324-2.189,1.827c-0.808,0.503-1.682,0.89-2.625,1.16
		c-0.942,0.271-1.931,0.406-2.965,0.406c-1.276,0-2.424-0.227-3.443-0.681c-1.021-0.455-1.891-1.085-2.61-1.893
		c-0.721-0.807-1.271-1.766-1.653-2.878s-0.572-2.33-0.572-3.654c0-1.769,0.275-3.395,0.826-4.879s1.313-2.762,2.284-3.835
		c0.972-1.073,2.121-1.909,3.451-2.508c1.328-0.6,2.771-0.899,4.328-0.899c1.275,0,2.424,0.23,3.443,0.689
		c1.02,0.459,1.89,1.095,2.61,1.907c0.72,0.812,1.271,1.776,1.652,2.893C224.55,49.714,224.741,50.935,224.741,52.259z
		 M221.957,52.317c0-1.053-0.136-2.008-0.406-2.864c-0.271-0.855-0.654-1.583-1.152-2.182c-0.498-0.599-1.107-1.063-1.827-1.392
		c-0.72-0.328-1.529-0.493-2.429-0.493c-1.141,0-2.189,0.229-3.146,0.688c-0.957,0.459-1.778,1.114-2.465,1.965
		s-1.224,1.878-1.609,3.082c-0.387,1.203-0.58,2.549-0.58,4.038c0,1.054,0.135,2.006,0.406,2.856
		c0.271,0.851,0.654,1.576,1.152,2.175c0.498,0.6,1.104,1.061,1.819,1.385c0.716,0.324,1.522,0.486,2.422,0.486
		c1.16,0,2.219-0.227,3.176-0.682c0.957-0.454,1.778-1.104,2.465-1.95c0.687-0.846,1.22-1.87,1.603-3.074
		C221.766,55.152,221.957,53.806,221.957,52.317z"/>
	<path id="XMLID_71_" class="st0" d="M228.352,56.319l-0.957,7.801h-2.696l2.537-20.778h5.728c1.102,0,2.059,0.13,2.871,0.391
		c0.812,0.261,1.481,0.633,2.008,1.117c0.527,0.483,0.921,1.063,1.182,1.74c0.262,0.677,0.392,1.431,0.392,2.262
		c0,1.093-0.179,2.095-0.536,3.009s-0.877,1.699-1.559,2.356s-1.522,1.172-2.523,1.544c-1,0.373-2.144,0.559-3.429,0.559H228.352z
		 M229.686,45.473l-1.072,8.7h3.016c0.821,0,1.547-0.126,2.175-0.377c0.629-0.251,1.155-0.602,1.581-1.051
		c0.425-0.449,0.749-0.986,0.971-1.609c0.223-0.624,0.334-1.302,0.334-2.037c0-0.561-0.082-1.063-0.246-1.508
		c-0.165-0.445-0.411-0.824-0.74-1.139c-0.328-0.314-0.744-0.556-1.247-0.725c-0.502-0.169-1.087-0.254-1.754-0.254H229.686z"/>
	<path id="XMLID_74_" class="st0" d="M249.137,57.458c0.053,0.188,0.104,0.384,0.152,0.587c0.174-0.406,0.377-0.797,0.609-1.174
		l8.163-13.064c0.136-0.222,0.273-0.355,0.413-0.399c0.141-0.043,0.331-0.065,0.573-0.065h2.016l-2.553,20.778h-2.378l1.899-15.355
		c0.02-0.193,0.051-0.401,0.095-0.624c0.043-0.222,0.089-0.454,0.138-0.696l-8.076,13.021c-0.252,0.416-0.604,0.624-1.059,0.624
		h-0.377c-0.445,0-0.75-0.208-0.914-0.624l-5.002-13.05c-0.01,0.232-0.02,0.459-0.029,0.682c-0.01,0.223-0.024,0.43-0.044,0.624
		l-1.885,15.399h-2.393l2.566-20.778h1.987c0.241,0,0.432,0.021,0.572,0.065c0.14,0.043,0.249,0.177,0.326,0.399l5.031,13.064
		C249.028,57.073,249.084,57.269,249.137,57.458z"/>
	<path id="XMLID_76_" class="st0" d="M274.867,45.56h-9.091l-0.87,7.003h7.366l-0.276,2.132h-7.351l-0.885,7.221h9.12l-0.275,2.204
		h-11.847l2.566-20.778h11.817L274.867,45.56z"/>
	<path id="XMLID_78_" class="st0" d="M278.398,43.429c0.11,0.058,0.225,0.184,0.341,0.377l8.961,15.877
		c0.019-0.222,0.038-0.433,0.058-0.631c0.02-0.198,0.039-0.389,0.058-0.573l1.856-15.138h2.393l-2.552,20.778h-1.363
		c-0.223,0-0.406-0.036-0.551-0.109c-0.146-0.072-0.271-0.205-0.377-0.398l-8.946-15.892c0,0.048-0.003,0.116-0.008,0.203
		c-0.005,0.087-0.012,0.179-0.021,0.275s-0.02,0.196-0.029,0.297c-0.01,0.101-0.02,0.186-0.029,0.253l-1.885,15.37h-2.393
		l2.566-20.778h1.393C278.11,43.342,278.287,43.371,278.398,43.429z"/>
	<path id="XMLID_80_" class="st0" d="M307.419,43.342l-0.29,2.276h-6.134l-2.262,18.502h-2.697l2.263-18.502h-6.163l0.275-2.276
		H307.419z"/>
	<path id="XMLID_82_" class="st0" d="M111.308,103.72h-2.376c-0.274,0-0.489-0.068-0.644-0.206s-0.258-0.316-0.313-0.537
		l-1.287-5.775h-9.636l-2.706,5.775c-0.099,0.198-0.25,0.372-0.453,0.52c-0.204,0.148-0.433,0.223-0.686,0.223h-2.408l11.599-23.645
		h3.119L111.308,103.72z M98.092,94.958h8.102l-2.179-9.784c-0.065-0.286-0.138-0.611-0.214-0.974
		c-0.077-0.363-0.144-0.753-0.198-1.171c-0.154,0.418-0.312,0.811-0.471,1.18s-0.311,0.696-0.453,0.982L98.092,94.958z"/>
	<path id="XMLID_85_" class="st0" d="M123.749,101.493c0.571,0,1.105-0.03,1.601-0.091c0.495-0.06,0.959-0.151,1.394-0.272
		s0.853-0.267,1.255-0.438c0.401-0.17,0.8-0.366,1.195-0.585l0.644-5.346h-3.283c-0.188,0-0.333-0.049-0.438-0.148
		s-0.156-0.226-0.156-0.379c0.011-0.11,0.019-0.198,0.024-0.264s0.014-0.154,0.025-0.264l0.148-1.303h6.765l-1.105,9.025
		c-0.594,0.429-1.207,0.803-1.84,1.122s-1.301,0.585-2.005,0.8c-0.704,0.214-1.446,0.374-2.228,0.479
		c-0.781,0.104-1.622,0.157-2.524,0.157c-1.43,0-2.726-0.256-3.886-0.768c-1.16-0.511-2.153-1.226-2.979-2.145
		c-0.824-0.918-1.46-2.016-1.905-3.292s-0.668-2.673-0.668-4.191c0-2.035,0.315-3.896,0.948-5.585
		c0.633-1.688,1.507-3.14,2.624-4.356c1.116-1.215,2.441-2.159,3.977-2.83c1.534-0.671,3.209-1.007,5.023-1.007
		c0.913,0,1.744,0.077,2.492,0.231c0.748,0.154,1.424,0.369,2.029,0.644c0.604,0.275,1.152,0.6,1.642,0.974s0.938,0.781,1.345,1.221
		l-0.99,1.287c-0.109,0.144-0.223,0.253-0.338,0.33c-0.115,0.077-0.25,0.116-0.404,0.116c-0.188,0-0.369-0.055-0.545-0.165
		c-0.242-0.143-0.509-0.327-0.8-0.553c-0.292-0.226-0.644-0.44-1.056-0.644c-0.413-0.204-0.911-0.379-1.494-0.528
		s-1.286-0.223-2.111-0.223c-1.354,0-2.594,0.259-3.721,0.776c-1.128,0.517-2.096,1.254-2.904,2.211s-1.438,2.112-1.89,3.465
		s-0.676,2.86-0.676,4.521c0,1.243,0.162,2.359,0.486,3.35c0.324,0.99,0.784,1.832,1.378,2.524s1.309,1.224,2.145,1.592
		C121.779,101.309,122.715,101.493,123.749,101.493z"/>
	<path id="XMLID_87_" class="st0" d="M152.707,82.6h-10.346l-0.99,7.97h8.382l-0.313,2.425h-8.365l-1.007,8.217h10.379l-0.313,2.508
		h-13.48l2.921-23.645h13.447L152.707,82.6z"/>
	<path id="XMLID_89_" class="st0" d="M160.023,80.175c0.127,0.066,0.256,0.209,0.388,0.429l10.197,18.068
		c0.021-0.253,0.044-0.492,0.066-0.718c0.021-0.226,0.043-0.443,0.065-0.652l2.112-17.226h2.723l-2.904,23.645h-1.551
		c-0.253,0-0.462-0.041-0.627-0.124s-0.309-0.234-0.43-0.454l-10.18-18.084c0,0.055-0.003,0.132-0.009,0.231
		c-0.006,0.099-0.014,0.204-0.024,0.313c-0.012,0.11-0.022,0.223-0.033,0.338c-0.011,0.116-0.022,0.212-0.033,0.289l-2.145,17.49
		h-2.723l2.921-23.645h1.584C159.696,80.076,159.897,80.109,160.023,80.175z"/>
	<path id="XMLID_91_" class="st0" d="M188.131,101.328c0.727,0,1.37-0.06,1.931-0.182c0.562-0.121,1.057-0.269,1.485-0.445
		c0.429-0.176,0.795-0.371,1.097-0.586c0.303-0.214,0.566-0.41,0.792-0.585s0.415-0.324,0.569-0.446
		c0.154-0.121,0.292-0.181,0.413-0.181c0.099,0,0.182,0.019,0.247,0.058c0.066,0.039,0.121,0.085,0.165,0.14l1.072,1.336
		c-1.034,1.122-2.225,1.994-3.572,2.615c-1.348,0.622-2.918,0.933-4.71,0.933c-1.408,0-2.674-0.253-3.795-0.759
		c-1.122-0.506-2.071-1.212-2.847-2.12s-1.369-1.988-1.782-3.242c-0.412-1.254-0.618-2.634-0.618-4.142
		c0-2.057,0.318-3.938,0.957-5.643c0.638-1.705,1.515-3.17,2.631-4.397c1.117-1.227,2.429-2.178,3.936-2.854
		c1.507-0.677,3.13-1.015,4.867-1.015c0.836,0,1.596,0.072,2.277,0.215s1.304,0.352,1.864,0.627c0.562,0.275,1.07,0.605,1.526,0.99
		c0.457,0.385,0.883,0.814,1.279,1.287l-1.057,1.287c-0.088,0.11-0.187,0.201-0.297,0.272c-0.109,0.072-0.247,0.107-0.412,0.107
		c-0.198,0-0.407-0.11-0.627-0.33c-0.221-0.22-0.52-0.459-0.899-0.718c-0.38-0.258-0.869-0.498-1.469-0.718
		c-0.6-0.22-1.378-0.33-2.335-0.33c-1.275,0-2.469,0.256-3.58,0.768c-1.111,0.511-2.073,1.243-2.888,2.194
		c-0.814,0.952-1.455,2.104-1.922,3.457c-0.468,1.353-0.701,2.871-0.701,4.554c0,1.221,0.159,2.316,0.479,3.284
		c0.318,0.968,0.762,1.79,1.328,2.467c0.566,0.676,1.24,1.196,2.021,1.559C186.338,101.146,187.196,101.328,188.131,101.328z"/>
	<path id="XMLID_93_" class="st0" d="M209.268,94.266l-1.172,9.455h-3.086l1.172-9.421l-6.237-14.223h2.739
		c0.275,0,0.484,0.069,0.627,0.206c0.143,0.138,0.259,0.311,0.347,0.52l3.927,9.471c0.11,0.319,0.204,0.622,0.28,0.907
		c0.077,0.286,0.144,0.572,0.198,0.858c0.132-0.286,0.278-0.572,0.438-0.858c0.159-0.286,0.333-0.588,0.52-0.907l6.287-9.471
		c0.12-0.176,0.271-0.341,0.453-0.495c0.182-0.154,0.404-0.231,0.669-0.231h2.557L209.268,94.266z"/>
</g>
</svg>